<?xml version="1.0" encoding="utf-8" ?>
<svg xmlns="http://www.w3.org/2000/svg" xmlns:xlink="http://www.w3.org/1999/xlink" width="1024" height="1024">
	<path fill="#1876D2" d="M297.361 85.7138C300.179 85.4854 303.051 85.5107 305.878 85.4575C337.647 84.8604 369.509 85.3078 401.286 85.3022L576.591 85.2878L667.988 85.313C699.405 85.343 731.967 83.6532 762.74 91.0118C802.955 100.628 839.464 121.306 869.185 149.949C912.342 191.541 938.191 249.006 939.164 308.999C939.628 337.653 939.118 366.397 939.08 395.058L938.941 561.077L938.912 657.64C938.965 694.456 941.004 732 932.072 768.039C922.227 807.759 900.717 843.468 872.376 872.731C835.901 910.391 778.668 937.725 725.875 938.521C691.74 939.232 657.556 938.873 623.411 938.908L446.368 939.037L354.715 939.097C324.621 939.124 293.743 940.579 264.181 934.033C226.911 925.781 193.019 907.532 164.286 882.549C120.017 844.057 89.5784 787.407 85.6385 728.499C83.7872 700.82 84.9116 672.712 84.9237 644.965L84.8217 504.141L84.6569 374.086L84.6081 331.382C84.5963 309.753 84.8605 289.236 89.4666 267.994C97.7958 229.582 116.593 193.502 142.431 163.955C181.868 118.859 237.417 89.7249 297.361 85.7138Z"/>
	<path fill="#FEFEFE" d="M676.57 559.322C677.507 561.826 676.839 591.137 676.434 595.69C676.196 598.37 675.736 601.001 674.931 603.571C669.681 620.34 650.795 631.82 636.034 639.358C574.177 670.949 473.812 668.329 409.099 647.348C386.242 639.938 360.617 627.378 349.23 605.055C345.236 591.989 347.197 575.595 347.521 562.021C356.402 574.088 366.381 582.796 379.491 590.105C442.458 625.209 538.352 625.527 606.137 606.226C634.189 598.239 661.742 585.875 676.57 559.322Z"/>
	<path fill="#FEFEFE" d="M347.538 417.723C350.352 419.951 351.827 424.143 354.079 426.989C359.128 433.368 366.849 438.852 373.694 443.125C431.166 478.996 529.014 481.501 593.143 466.427C618.188 460.54 646.694 451.458 665.158 432.783C669.7 428.19 673.19 423.158 676.585 417.682C676.529 431.665 678.15 446.656 675.004 460.396C672.725 466.743 668.403 472.312 663.548 476.906C625.089 513.301 553.086 520.712 502.516 519.439C457.549 518.306 389.23 508.028 357.095 473.885C353.978 470.573 351.068 466.895 349.38 462.631C344.938 451.407 347.154 430.073 347.538 417.723Z"/>
	<path fill="#FEFEFE" d="M675.845 344.902L676.377 345.72C677.067 355.307 677.762 378.555 675.571 387.455C672.219 401.077 657.691 411.777 646.301 418.667C589.006 453.327 489.274 453.132 425.764 437.429C397.143 430.351 365.254 417.831 349.372 391.564C345.232 378.792 347.286 360.757 347.488 347.308C356.4 362.827 370.891 372.423 386.817 379.75C451.377 409.45 555.154 410.568 621.405 385.898C643.075 377.828 665.732 366.946 675.845 344.902Z"/>
	<path fill="#FEFEFE" d="M676.169 488.331C677.964 496.063 677.329 525.134 674.916 532.988C670.174 548.422 651.653 559.687 638.132 566.787C589.012 592.579 513.114 595.846 459.047 587.851C444.383 585.682 429.643 582.094 415.488 577.712C390.529 569.986 362.005 558.469 349.188 534.2C344.878 523.712 347.254 501.583 347.516 489.819C354.704 501.679 364.118 509.784 376.111 516.677C436.699 551.5 535.246 554.715 601.339 536.62C624.238 530.35 650.193 520.367 666.435 502.43C670.35 498.106 673.289 493.383 676.169 488.331Z"/>
	<path fill="#FEFEFE" d="M676.579 632.329C677.342 634.411 676.835 661.388 676.569 665.326C676.378 668.136 675.983 670.907 675.236 673.626C670.833 689.653 655.98 700.425 642.176 708.126C582.658 741.328 482.416 740.728 418.243 722.461C392.575 715.155 362.761 702.313 349.286 678.121C345.383 667.774 346.915 645.122 348.021 633.596C354.76 645.264 364.41 653.689 376.07 660.332C439.102 696.24 535.999 697.101 604.53 678.371C626.186 672.452 651.689 663.51 667.071 646.451C670.932 642.169 673.739 637.306 676.579 632.329Z"/>
	<path fill="#FEFEFE" d="M496.27 251.72C544.06 249.647 627.416 256.507 664.475 289.691C670.75 295.31 675.262 302.646 675.604 311.267C675.978 320.713 671.022 328.79 664.717 335.367C635.021 366.349 568.212 375.498 527.25 376.501C481.668 377.543 437.007 374.092 394.314 356.994C382.021 352.071 369.507 346.164 359.692 337.098C353.005 330.921 347.73 322.939 347.503 313.554C347.304 305.332 351.238 297.86 356.737 291.999C364.113 284.138 373.92 278.895 383.585 274.385C419.184 257.773 457.384 253.114 496.27 251.72Z"/>
</svg>
